# Original parametric JSG-ZPM artwork; see tools/build_ancient_assets.py
mtllib ancient_zpm_array.mtl
o ancient_hardware
v 0.035 0.025 0.915
vt 0.209375 0.979167
vn 0 0 -1
v 0.035 0.975 0.915
vt 0.209375 0.1875
v 0.965 0.975 0.915
vt 0.790625 0.1875
v 0.965 0.025 0.915
vt 0.790625 0.979167
usemtl recess
f 1/1/1 2/2/1 3/3/1 4/4/1
v 0.965 0.025 0.985
vn 0 -0 1
v 0.965 0.975 0.985
v 0.035 0.975 0.985
v 0.035 0.025 0.985
f 5/4/2 6/3/2 7/2/2 8/1/2
vt 0.803125 0.979167
vn -1 0 0
vt 0.803125 0.1875
vt 0.759375 0.1875
vt 0.759375 0.979167
f 8/5/3 7/6/3 2/7/3 1/8/3
vn 1 0 0
f 4/8/4 3/7/4 6/6/4 5/5/4
vt 0.209375 0.759375
vn 0 1 0
vt 0.209375 0.803125
vt 0.790625 0.803125
vt 0.790625 0.759375
f 2/9/5 7/10/5 6/11/5 3/12/5
vn 0 -1 0
f 8/10/6 1/9/6 4/12/6 5/11/6
v 0.065 0.05 0.89
vt 0.228125 0.958333
v 0.065 0.95 0.89
vt 0.228125 0.208333
v 0.935 0.95 0.89
vt 0.771875 0.208333
v 0.935 0.05 0.89
vt 0.771875 0.958333
usemtl panel
f 9/13/1 10/14/1 11/15/1 12/16/1
v 0.935 0.05 0.916
v 0.935 0.95 0.916
v 0.065 0.95 0.916
v 0.065 0.05 0.916
f 13/16/2 14/15/2 15/14/2 16/13/2
vt 0.76 0.958333
vt 0.76 0.208333
vt 0.74375 0.208333
vt 0.74375 0.958333
f 16/17/3 15/18/3 10/19/3 9/20/3
f 12/20/4 11/19/4 14/18/4 13/17/4
vt 0.228125 0.74375
vt 0.228125 0.76
vt 0.771875 0.76
vt 0.771875 0.74375
f 10/21/5 15/22/5 14/23/5 11/24/5
f 16/22/6 9/21/6 12/24/6 13/23/6
v 0.11 0.095 0.875
vt 0.25625 0.920833
v 0.11 0.905 0.875
vt 0.25625 0.245833
v 0.89 0.905 0.875
vt 0.74375 0.245833
v 0.89 0.095 0.875
vt 0.74375 0.920833
usemtl trim
f 17/25/1 18/26/1 19/27/1 20/28/1
v 0.89 0.095 0.891
v 0.89 0.905 0.891
v 0.11 0.905 0.891
v 0.11 0.095 0.891
f 21/28/2 22/27/2 23/26/2 24/25/2
vt 0.744375 0.920833
vt 0.744375 0.245833
vt 0.734375 0.245833
vt 0.734375 0.920833
f 24/29/3 23/30/3 18/31/3 17/32/3
f 20/32/4 19/31/4 22/30/4 21/29/4
vt 0.25625 0.734375
vt 0.25625 0.744375
vt 0.74375 0.744375
vt 0.74375 0.734375
f 18/33/5 23/34/5 22/35/5 19/36/5
f 24/34/6 17/33/6 20/36/6 21/35/6
v 0.135 0.12 0.86
vt 0.271875 0.9
v 0.135 0.88 0.86
vt 0.271875 0.266667
v 0.865 0.88 0.86
vt 0.728125 0.266667
v 0.865 0.12 0.86
vt 0.728125 0.9
usemtl panel
f 25/37/1 26/38/1 27/39/1 28/40/1
v 0.865 0.12 0.876
v 0.865 0.88 0.876
v 0.135 0.88 0.876
v 0.135 0.12 0.876
f 29/40/2 30/39/2 31/38/2 32/37/2
vt 0.735 0.9
vt 0.735 0.266667
vt 0.725 0.266667
vt 0.725 0.9
f 32/41/3 31/42/3 26/43/3 25/44/3
f 28/44/4 27/43/4 30/42/4 29/41/4
vt 0.271875 0.725
vt 0.271875 0.735
vt 0.728125 0.735
vt 0.728125 0.725
f 26/45/5 31/46/5 30/47/5 27/48/5
f 32/46/6 25/45/6 28/48/6 29/47/6
v 0.045 0.055 0.7
vt 0.215625 0.954167
v 0.045 0.945 0.7
vt 0.215625 0.2125
v 0.135 0.945 0.7
vt 0.271875 0.2125
v 0.135 0.055 0.7
vt 0.271875 0.954167
f 33/49/1 34/50/1 35/51/1 36/52/1
v 0.135 0.055 0.916
v 0.135 0.945 0.916
v 0.045 0.945 0.916
v 0.045 0.055 0.916
f 37/52/2 38/51/2 39/50/2 40/49/2
vt 0.76 0.954167
vt 0.76 0.2125
vt 0.625 0.2125
vt 0.625 0.954167
f 40/53/3 39/54/3 34/55/3 33/56/3
f 36/56/4 35/55/4 38/54/4 37/53/4
vt 0.215625 0.625
vt 0.215625 0.76
vt 0.271875 0.76
vt 0.271875 0.625
f 34/57/5 39/58/5 38/59/5 35/60/5
f 40/58/6 33/57/6 36/60/6 37/59/6
v 0.071 0.105 0.683
vt 0.231875 0.9125
v 0.071 0.895 0.683
vt 0.231875 0.254167
v 0.109 0.895 0.683
vt 0.255625 0.254167
v 0.109 0.105 0.683
vt 0.255625 0.9125
usemtl trim
f 41/61/1 42/62/1 43/63/1 44/64/1
v 0.109 0.105 0.706
v 0.109 0.895 0.706
v 0.071 0.895 0.706
v 0.071 0.105 0.706
f 45/64/2 46/63/2 47/62/2 48/61/2
vt 0.62875 0.9125
vt 0.62875 0.254167
vt 0.614375 0.254167
vt 0.614375 0.9125
f 48/65/3 47/66/3 42/67/3 41/68/3
f 44/68/4 43/67/4 46/66/4 45/65/4
vt 0.231875 0.614375
vt 0.231875 0.62875
vt 0.255625 0.62875
vt 0.255625 0.614375
f 42/69/5 47/70/5 46/71/5 43/72/5
f 48/70/6 41/69/6 44/72/6 45/71/6
v 0.031 0.12 0.725
vt 0.206875 0.9
v 0.031 0.146 0.725
vt 0.206875 0.878333
v 0.149 0.146 0.725
vt 0.280625 0.878333
v 0.149 0.12 0.725
vt 0.280625 0.9
usemtl panel
f 49/73/1 50/74/1 51/75/1 52/76/1
v 0.149 0.12 0.92
v 0.149 0.146 0.92
v 0.031 0.146 0.92
v 0.031 0.12 0.92
f 53/76/2 54/75/2 55/74/2 56/73/2
vt 0.7625 0.9
vt 0.7625 0.878333
vt 0.640625 0.878333
vt 0.640625 0.9
f 56/77/3 55/78/3 50/79/3 49/80/3
f 52/80/4 51/79/4 54/78/4 53/77/4
vt 0.206875 0.640625
vt 0.206875 0.7625
vt 0.280625 0.7625
vt 0.280625 0.640625
f 50/81/5 55/82/5 54/83/5 51/84/5
f 56/82/6 49/81/6 52/84/6 53/83/6
v 0.031 0.205 0.725
vt 0.206875 0.829167
v 0.031 0.231 0.725
vt 0.206875 0.8075
v 0.149 0.231 0.725
vt 0.280625 0.8075
v 0.149 0.205 0.725
vt 0.280625 0.829167
f 57/85/1 58/86/1 59/87/1 60/88/1
v 0.149 0.205 0.92
v 0.149 0.231 0.92
v 0.031 0.231 0.92
v 0.031 0.205 0.92
f 61/88/2 62/87/2 63/86/2 64/85/2
vt 0.7625 0.829167
vt 0.7625 0.8075
vt 0.640625 0.8075
vt 0.640625 0.829167
f 64/89/3 63/90/3 58/91/3 57/92/3
f 60/92/4 59/91/4 62/90/4 61/89/4
f 58/81/5 63/82/5 62/83/5 59/84/5
f 64/82/6 57/81/6 60/84/6 61/83/6
v 0.031 0.29 0.725
vt 0.206875 0.758333
v 0.031 0.316 0.725
vt 0.206875 0.736667
v 0.149 0.316 0.725
vt 0.280625 0.736667
v 0.149 0.29 0.725
vt 0.280625 0.758333
f 65/93/1 66/94/1 67/95/1 68/96/1
v 0.149 0.29 0.92
v 0.149 0.316 0.92
v 0.031 0.316 0.92
v 0.031 0.29 0.92
f 69/96/2 70/95/2 71/94/2 72/93/2
vt 0.7625 0.758333
vt 0.7625 0.736667
vt 0.640625 0.736667
vt 0.640625 0.758333
f 72/97/3 71/98/3 66/99/3 65/100/3
f 68/100/4 67/99/4 70/98/4 69/97/4
f 66/81/5 71/82/5 70/83/5 67/84/5
f 72/82/6 65/81/6 68/84/6 69/83/6
v 0.031 0.375 0.725
vt 0.206875 0.6875
v 0.031 0.401 0.725
vt 0.206875 0.665833
v 0.149 0.401 0.725
vt 0.280625 0.665833
v 0.149 0.375 0.725
vt 0.280625 0.6875
f 73/101/1 74/102/1 75/103/1 76/104/1
v 0.149 0.375 0.92
v 0.149 0.401 0.92
v 0.031 0.401 0.92
v 0.031 0.375 0.92
f 77/104/2 78/103/2 79/102/2 80/101/2
vt 0.7625 0.6875
vt 0.7625 0.665833
vt 0.640625 0.665833
vt 0.640625 0.6875
f 80/105/3 79/106/3 74/107/3 73/108/3
f 76/108/4 75/107/4 78/106/4 77/105/4
f 74/81/5 79/82/5 78/83/5 75/84/5
f 80/82/6 73/81/6 76/84/6 77/83/6
v 0.031 0.46 0.725
vt 0.206875 0.616667
v 0.031 0.486 0.725
vt 0.206875 0.595
v 0.149 0.486 0.725
vt 0.280625 0.595
v 0.149 0.46 0.725
vt 0.280625 0.616667
f 81/109/1 82/110/1 83/111/1 84/112/1
v 0.149 0.46 0.92
v 0.149 0.486 0.92
v 0.031 0.486 0.92
v 0.031 0.46 0.92
f 85/112/2 86/111/2 87/110/2 88/109/2
vt 0.7625 0.616667
vt 0.7625 0.595
vt 0.640625 0.595
vt 0.640625 0.616667
f 88/113/3 87/114/3 82/115/3 81/116/3
f 84/116/4 83/115/4 86/114/4 85/113/4
f 82/81/5 87/82/5 86/83/5 83/84/5
f 88/82/6 81/81/6 84/84/6 85/83/6
v 0.031 0.545 0.725
vt 0.206875 0.545833
v 0.031 0.571 0.725
vt 0.206875 0.524167
v 0.149 0.571 0.725
vt 0.280625 0.524167
v 0.149 0.545 0.725
vt 0.280625 0.545833
f 89/117/1 90/118/1 91/119/1 92/120/1
v 0.149 0.545 0.92
v 0.149 0.571 0.92
v 0.031 0.571 0.92
v 0.031 0.545 0.92
f 93/120/2 94/119/2 95/118/2 96/117/2
vt 0.7625 0.545833
vt 0.7625 0.524167
vt 0.640625 0.524167
vt 0.640625 0.545833
f 96/121/3 95/122/3 90/123/3 89/124/3
f 92/124/4 91/123/4 94/122/4 93/121/4
f 90/81/5 95/82/5 94/83/5 91/84/5
f 96/82/6 89/81/6 92/84/6 93/83/6
v 0.031 0.63 0.725
vt 0.206875 0.475
v 0.031 0.656 0.725
vt 0.206875 0.453333
v 0.149 0.656 0.725
vt 0.280625 0.453333
v 0.149 0.63 0.725
vt 0.280625 0.475
f 97/125/1 98/126/1 99/127/1 100/128/1
v 0.149 0.63 0.92
v 0.149 0.656 0.92
v 0.031 0.656 0.92
v 0.031 0.63 0.92
f 101/128/2 102/127/2 103/126/2 104/125/2
vt 0.7625 0.475
vt 0.7625 0.453333
vt 0.640625 0.453333
vt 0.640625 0.475
f 104/129/3 103/130/3 98/131/3 97/132/3
f 100/132/4 99/131/4 102/130/4 101/129/4
f 98/81/5 103/82/5 102/83/5 99/84/5
f 104/82/6 97/81/6 100/84/6 101/83/6
v 0.031 0.715 0.725
vt 0.206875 0.404167
v 0.031 0.741 0.725
vt 0.206875 0.3825
v 0.149 0.741 0.725
vt 0.280625 0.3825
v 0.149 0.715 0.725
vt 0.280625 0.404167
f 105/133/1 106/134/1 107/135/1 108/136/1
v 0.149 0.715 0.92
v 0.149 0.741 0.92
v 0.031 0.741 0.92
v 0.031 0.715 0.92
f 109/136/2 110/135/2 111/134/2 112/133/2
vt 0.7625 0.404167
vt 0.7625 0.3825
vt 0.640625 0.3825
vt 0.640625 0.404167
f 112/137/3 111/138/3 106/139/3 105/140/3
f 108/140/4 107/139/4 110/138/4 109/137/4
f 106/81/5 111/82/5 110/83/5 107/84/5
f 112/82/6 105/81/6 108/84/6 109/83/6
v 0.031 0.8 0.725
vt 0.206875 0.333333
v 0.031 0.826 0.725
vt 0.206875 0.311667
v 0.149 0.826 0.725
vt 0.280625 0.311667
v 0.149 0.8 0.725
vt 0.280625 0.333333
f 113/141/1 114/142/1 115/143/1 116/144/1
v 0.149 0.8 0.92
v 0.149 0.826 0.92
v 0.031 0.826 0.92
v 0.031 0.8 0.92
f 117/144/2 118/143/2 119/142/2 120/141/2
vt 0.7625 0.333333
vt 0.7625 0.311667
vt 0.640625 0.311667
vt 0.640625 0.333333
f 120/145/3 119/146/3 114/147/3 113/148/3
f 116/148/4 115/147/4 118/146/4 117/145/4
f 114/81/5 119/82/5 118/83/5 115/84/5
f 120/82/6 113/81/6 116/84/6 117/83/6
v 0.077 0.365 0.679
vt 0.235625 0.695833
v 0.077 0.635 0.679
vt 0.235625 0.470833
v 0.103 0.635 0.679
vt 0.251875 0.470833
v 0.103 0.365 0.679
vt 0.251875 0.695833
usemtl light
f 121/149/1 122/150/1 123/151/1 124/152/1
v 0.103 0.365 0.684
v 0.103 0.635 0.684
v 0.077 0.635 0.684
v 0.077 0.365 0.684
f 125/152/2 126/151/2 127/150/2 128/149/2
vt 0.615 0.695833
vt 0.615 0.470833
vt 0.611875 0.470833
vt 0.611875 0.695833
f 128/153/3 127/154/3 122/155/3 121/156/3
f 124/156/4 123/155/4 126/154/4 125/153/4
vt 0.235625 0.611875
vt 0.235625 0.615
vt 0.251875 0.615
vt 0.251875 0.611875
f 122/157/5 127/158/5 126/159/5 123/160/5
f 128/158/6 121/157/6 124/160/6 125/159/6
v 0.865 0.055 0.7
vt 0.728125 0.954167
v 0.865 0.945 0.7
vt 0.728125 0.2125
v 0.955 0.945 0.7
vt 0.784375 0.2125
v 0.955 0.055 0.7
vt 0.784375 0.954167
usemtl panel
f 129/161/1 130/162/1 131/163/1 132/164/1
v 0.955 0.055 0.916
v 0.955 0.945 0.916
v 0.865 0.945 0.916
v 0.865 0.055 0.916
f 133/164/2 134/163/2 135/162/2 136/161/2
f 136/53/3 135/54/3 130/55/3 129/56/3
f 132/56/4 131/55/4 134/54/4 133/53/4
vt 0.728125 0.625
vt 0.728125 0.76
vt 0.784375 0.76
vt 0.784375 0.625
f 130/165/5 135/166/5 134/167/5 131/168/5
f 136/166/6 129/165/6 132/168/6 133/167/6
v 0.891 0.105 0.683
vt 0.744375 0.9125
v 0.891 0.895 0.683
vt 0.744375 0.254167
v 0.929 0.895 0.683
vt 0.768125 0.254167
v 0.929 0.105 0.683
vt 0.768125 0.9125
usemtl trim
f 137/169/1 138/170/1 139/171/1 140/172/1
v 0.929 0.105 0.706
v 0.929 0.895 0.706
v 0.891 0.895 0.706
v 0.891 0.105 0.706
f 141/172/2 142/171/2 143/170/2 144/169/2
f 144/65/3 143/66/3 138/67/3 137/68/3
f 140/68/4 139/67/4 142/66/4 141/65/4
vt 0.744375 0.614375
vt 0.744375 0.62875
vt 0.768125 0.62875
vt 0.768125 0.614375
f 138/173/5 143/174/5 142/175/5 139/176/5
f 144/174/6 137/173/6 140/176/6 141/175/6
v 0.851 0.12 0.725
vt 0.719375 0.9
v 0.851 0.146 0.725
vt 0.719375 0.878333
v 0.969 0.146 0.725
vt 0.793125 0.878333
v 0.969 0.12 0.725
vt 0.793125 0.9
usemtl panel
f 145/177/1 146/178/1 147/179/1 148/180/1
v 0.969 0.12 0.92
v 0.969 0.146 0.92
v 0.851 0.146 0.92
v 0.851 0.12 0.92
f 149/180/2 150/179/2 151/178/2 152/177/2
f 152/77/3 151/78/3 146/79/3 145/80/3
f 148/80/4 147/79/4 150/78/4 149/77/4
vt 0.719375 0.640625
vt 0.719375 0.7625
vt 0.793125 0.7625
vt 0.793125 0.640625
f 146/181/5 151/182/5 150/183/5 147/184/5
f 152/182/6 145/181/6 148/184/6 149/183/6
v 0.851 0.205 0.725
vt 0.719375 0.829167
v 0.851 0.231 0.725
vt 0.719375 0.8075
v 0.969 0.231 0.725
vt 0.793125 0.8075
v 0.969 0.205 0.725
vt 0.793125 0.829167
f 153/185/1 154/186/1 155/187/1 156/188/1
v 0.969 0.205 0.92
v 0.969 0.231 0.92
v 0.851 0.231 0.92
v 0.851 0.205 0.92
f 157/188/2 158/187/2 159/186/2 160/185/2
f 160/89/3 159/90/3 154/91/3 153/92/3
f 156/92/4 155/91/4 158/90/4 157/89/4
f 154/181/5 159/182/5 158/183/5 155/184/5
f 160/182/6 153/181/6 156/184/6 157/183/6
v 0.851 0.29 0.725
vt 0.719375 0.758333
v 0.851 0.316 0.725
vt 0.719375 0.736667
v 0.969 0.316 0.725
vt 0.793125 0.736667
v 0.969 0.29 0.725
vt 0.793125 0.758333
f 161/189/1 162/190/1 163/191/1 164/192/1
v 0.969 0.29 0.92
v 0.969 0.316 0.92
v 0.851 0.316 0.92
v 0.851 0.29 0.92
f 165/192/2 166/191/2 167/190/2 168/189/2
f 168/97/3 167/98/3 162/99/3 161/100/3
f 164/100/4 163/99/4 166/98/4 165/97/4
f 162/181/5 167/182/5 166/183/5 163/184/5
f 168/182/6 161/181/6 164/184/6 165/183/6
v 0.851 0.375 0.725
vt 0.719375 0.6875
v 0.851 0.401 0.725
vt 0.719375 0.665833
v 0.969 0.401 0.725
vt 0.793125 0.665833
v 0.969 0.375 0.725
vt 0.793125 0.6875
f 169/193/1 170/194/1 171/195/1 172/196/1
v 0.969 0.375 0.92
v 0.969 0.401 0.92
v 0.851 0.401 0.92
v 0.851 0.375 0.92
f 173/196/2 174/195/2 175/194/2 176/193/2
f 176/105/3 175/106/3 170/107/3 169/108/3
f 172/108/4 171/107/4 174/106/4 173/105/4
f 170/181/5 175/182/5 174/183/5 171/184/5
f 176/182/6 169/181/6 172/184/6 173/183/6
v 0.851 0.46 0.725
vt 0.719375 0.616667
v 0.851 0.486 0.725
vt 0.719375 0.595
v 0.969 0.486 0.725
vt 0.793125 0.595
v 0.969 0.46 0.725
vt 0.793125 0.616667
f 177/197/1 178/198/1 179/199/1 180/200/1
v 0.969 0.46 0.92
v 0.969 0.486 0.92
v 0.851 0.486 0.92
v 0.851 0.46 0.92
f 181/200/2 182/199/2 183/198/2 184/197/2
f 184/113/3 183/114/3 178/115/3 177/116/3
f 180/116/4 179/115/4 182/114/4 181/113/4
f 178/181/5 183/182/5 182/183/5 179/184/5
f 184/182/6 177/181/6 180/184/6 181/183/6
v 0.851 0.545 0.725
vt 0.719375 0.545833
v 0.851 0.571 0.725
vt 0.719375 0.524167
v 0.969 0.571 0.725
vt 0.793125 0.524167
v 0.969 0.545 0.725
vt 0.793125 0.545833
f 185/201/1 186/202/1 187/203/1 188/204/1
v 0.969 0.545 0.92
v 0.969 0.571 0.92
v 0.851 0.571 0.92
v 0.851 0.545 0.92
f 189/204/2 190/203/2 191/202/2 192/201/2
f 192/121/3 191/122/3 186/123/3 185/124/3
f 188/124/4 187/123/4 190/122/4 189/121/4
f 186/181/5 191/182/5 190/183/5 187/184/5
f 192/182/6 185/181/6 188/184/6 189/183/6
v 0.851 0.63 0.725
vt 0.719375 0.475
v 0.851 0.656 0.725
vt 0.719375 0.453333
v 0.969 0.656 0.725
vt 0.793125 0.453333
v 0.969 0.63 0.725
vt 0.793125 0.475
f 193/205/1 194/206/1 195/207/1 196/208/1
v 0.969 0.63 0.92
v 0.969 0.656 0.92
v 0.851 0.656 0.92
v 0.851 0.63 0.92
f 197/208/2 198/207/2 199/206/2 200/205/2
f 200/129/3 199/130/3 194/131/3 193/132/3
f 196/132/4 195/131/4 198/130/4 197/129/4
f 194/181/5 199/182/5 198/183/5 195/184/5
f 200/182/6 193/181/6 196/184/6 197/183/6
v 0.851 0.715 0.725
vt 0.719375 0.404167
v 0.851 0.741 0.725
vt 0.719375 0.3825
v 0.969 0.741 0.725
vt 0.793125 0.3825
v 0.969 0.715 0.725
vt 0.793125 0.404167
f 201/209/1 202/210/1 203/211/1 204/212/1
v 0.969 0.715 0.92
v 0.969 0.741 0.92
v 0.851 0.741 0.92
v 0.851 0.715 0.92
f 205/212/2 206/211/2 207/210/2 208/209/2
f 208/137/3 207/138/3 202/139/3 201/140/3
f 204/140/4 203/139/4 206/138/4 205/137/4
f 202/181/5 207/182/5 206/183/5 203/184/5
f 208/182/6 201/181/6 204/184/6 205/183/6
v 0.851 0.8 0.725
vt 0.719375 0.333333
v 0.851 0.826 0.725
vt 0.719375 0.311667
v 0.969 0.826 0.725
vt 0.793125 0.311667
v 0.969 0.8 0.725
vt 0.793125 0.333333
f 209/213/1 210/214/1 211/215/1 212/216/1
v 0.969 0.8 0.92
v 0.969 0.826 0.92
v 0.851 0.826 0.92
v 0.851 0.8 0.92
f 213/216/2 214/215/2 215/214/2 216/213/2
f 216/145/3 215/146/3 210/147/3 209/148/3
f 212/148/4 211/147/4 214/146/4 213/145/4
f 210/181/5 215/182/5 214/183/5 211/184/5
f 216/182/6 209/181/6 212/184/6 213/183/6
v 0.897 0.365 0.679
vt 0.748125 0.695833
v 0.897 0.635 0.679
vt 0.748125 0.470833
v 0.923 0.635 0.679
vt 0.764375 0.470833
v 0.923 0.365 0.679
vt 0.764375 0.695833
usemtl light
f 217/217/1 218/218/1 219/219/1 220/220/1
v 0.923 0.365 0.684
v 0.923 0.635 0.684
v 0.897 0.635 0.684
v 0.897 0.365 0.684
f 221/220/2 222/219/2 223/218/2 224/217/2
f 224/153/3 223/154/3 218/155/3 217/156/3
f 220/156/4 219/155/4 222/154/4 221/153/4
vt 0.748125 0.611875
vt 0.748125 0.615
vt 0.764375 0.615
vt 0.764375 0.611875
f 218/221/5 223/222/5 222/223/5 219/224/5
f 224/222/6 217/221/6 220/224/6 221/223/6
v 0.12 0.06 0.775
vt 0.2625 0.95
v 0.12 0.1 0.775
vt 0.2625 0.916667
v 0.88 0.1 0.775
vt 0.7375 0.916667
v 0.88 0.06 0.775
vt 0.7375 0.95
usemtl trim
f 225/225/1 226/226/1 227/227/1 228/228/1
v 0.88 0.06 0.88
v 0.88 0.1 0.88
v 0.12 0.1 0.88
v 0.12 0.06 0.88
f 229/228/2 230/227/2 231/226/2 232/225/2
vt 0.671875 0.916667
vt 0.671875 0.95
f 232/228/3 231/227/3 226/229/3 225/230/3
f 228/230/4 227/229/4 230/227/4 229/228/4
vt 0.2625 0.671875
vt 0.2625 0.7375
vt 0.7375 0.7375
vt 0.7375 0.671875
f 226/231/5 231/232/5 230/233/5 227/234/5
f 232/232/6 225/231/6 228/234/6 229/233/6
v 0.12 0.9 0.775
vt 0.2625 0.25
v 0.12 0.94 0.775
vt 0.2625 0.216667
v 0.88 0.94 0.775
vt 0.7375 0.216667
v 0.88 0.9 0.775
vt 0.7375 0.25
f 233/235/1 234/236/1 235/237/1 236/238/1
v 0.88 0.9 0.88
v 0.88 0.94 0.88
v 0.12 0.94 0.88
v 0.12 0.9 0.88
f 237/238/2 238/237/2 239/236/2 240/235/2
vt 0.671875 0.216667
vt 0.671875 0.25
f 240/238/3 239/237/3 234/239/3 233/240/3
f 236/240/4 235/239/4 238/237/4 237/238/4
f 234/231/5 239/232/5 238/233/5 235/234/5
f 240/232/6 233/231/6 236/234/6 237/233/6
v 0.2 0.075 0.48
vt 0.3125 0.9375
v 0.2 0.135 0.48
vt 0.3125 0.8875
v 0.8 0.135 0.48
vt 0.6875 0.8875
v 0.8 0.075 0.48
vt 0.6875 0.9375
usemtl recess
f 241/241/1 242/242/1 243/243/1 244/244/1
v 0.8 0.075 0.91
v 0.8 0.135 0.91
v 0.2 0.135 0.91
v 0.2 0.075 0.91
f 245/244/2 246/243/2 247/242/2 248/241/2
vt 0.75625 0.9375
vt 0.75625 0.8875
vt 0.4875 0.8875
vt 0.4875 0.9375
f 248/245/3 247/246/3 242/247/3 241/248/3
f 244/248/4 243/247/4 246/246/4 245/245/4
vt 0.3125 0.4875
vt 0.3125 0.75625
vt 0.6875 0.75625
vt 0.6875 0.4875
f 242/249/5 247/250/5 246/251/5 243/252/5
f 248/250/6 241/249/6 244/252/6 245/251/6
v 0.24 0.135 0.53
vt 0.3375 0.8875
v 0.24 0.15 0.53
vt 0.3375 0.875
v 0.76 0.15 0.53
vt 0.6625 0.875
v 0.76 0.135 0.53
vt 0.6625 0.8875
usemtl panel
f 249/253/1 250/254/1 251/255/1 252/256/1
v 0.76 0.135 0.91
v 0.76 0.15 0.91
v 0.24 0.15 0.91
v 0.24 0.135 0.91
f 253/256/2 254/255/2 255/254/2 256/253/2
vt 0.75625 0.875
vt 0.51875 0.875
vt 0.51875 0.8875
f 256/246/3 255/257/3 250/258/3 249/259/3
f 252/259/4 251/258/4 254/257/4 253/246/4
vt 0.3375 0.51875
vt 0.3375 0.75625
vt 0.6625 0.75625
vt 0.6625 0.51875
f 250/260/5 255/261/5 254/262/5 251/263/5
f 256/261/6 249/260/6 252/263/6 253/262/6
v 0.23 0.15 0.6
vt 0.33125 0.875
v 0.23 0.36 0.6
vt 0.33125 0.7
v 0.3 0.36 0.6
vt 0.375 0.7
v 0.3 0.15 0.6
vt 0.375 0.875
f 257/264/1 258/265/1 259/266/1 260/267/1
v 0.3 0.15 0.9
v 0.3 0.36 0.9
v 0.23 0.36 0.9
v 0.23 0.15 0.9
f 261/267/2 262/266/2 263/265/2 264/264/2
vt 0.75 0.875
vt 0.75 0.7
vt 0.5625 0.7
vt 0.5625 0.875
f 264/268/3 263/269/3 258/270/3 257/271/3
f 260/271/4 259/270/4 262/269/4 261/268/4
vt 0.33125 0.5625
vt 0.33125 0.75
vt 0.375 0.75
vt 0.375 0.5625
f 258/272/5 263/273/5 262/274/5 259/275/5
f 264/273/6 257/272/6 260/275/6 261/274/6
v 0.7 0.15 0.6
vt 0.625 0.875
v 0.7 0.36 0.6
vt 0.625 0.7
v 0.77 0.36 0.6
vt 0.66875 0.7
v 0.77 0.15 0.6
vt 0.66875 0.875
f 265/276/1 266/277/1 267/278/1 268/279/1
v 0.77 0.15 0.9
v 0.77 0.36 0.9
v 0.7 0.36 0.9
v 0.7 0.15 0.9
f 269/279/2 270/278/2 271/277/2 272/276/2
f 272/268/3 271/269/3 266/270/3 265/271/3
f 268/271/4 267/270/4 270/269/4 269/268/4
vt 0.625 0.5625
vt 0.625 0.75
vt 0.66875 0.75
vt 0.66875 0.5625
f 266/280/5 271/281/5 270/282/5 267/283/5
f 272/281/6 265/280/6 268/283/6 269/282/6
v 0.697 0.160252 0.658143
vt 0.59884 0.866456
vn 0.97536 -0.032348 0.218236
v 0.711 0.282412 0.613681
vt 0.571051 0.764656
v 0.694939 0.310029 0.689557
vt 0.618473 0.741642
v 0.682004 0.186037 0.728986
vt 0.643116 0.844969
f 273/284/7 274/285/7 275/286/7 276/287/7
vn 0.82687 0.090261 0.555103
v 0.6492 0.333442 0.753883
vt 0.658677 0.722132
v 0.6393 0.207896 0.789043
vt 0.680652 0.826754
f 276/287/8 275/286/8 277/288/8 278/289/8
vt 0.587063 0.826754
vn 0.552497 0.184102 0.812929
vt 0.59325 0.722132
v 0.580746 0.349085 0.796863
vt 0.550466 0.709096
v 0.575389 0.222501 0.829171
vt 0.547118 0.814582
f 278/290/9 277/291/9 279/292/9 280/293/9
vn 0.194011 0.234889 0.952464
v 0.5 0.354579 0.811956
vt 0.5 0.704518
v 0.5 0.22763 0.843263
vt 0.5 0.810308
f 280/293/10 279/292/10 281/294/10 282/295/10
vn -0.194011 0.234889 0.952464
v 0.419254 0.349085 0.796863
vt 0.449534 0.709096
v 0.424611 0.222501 0.829171
vt 0.452882 0.814582
f 282/295/11 281/294/11 283/296/11 284/297/11
vn -0.552497 0.184102 0.812929
v 0.3508 0.333442 0.753883
vt 0.40675 0.722132
v 0.3607 0.207896 0.789043
vt 0.412937 0.826754
f 284/297/12 283/296/12 285/298/12 286/299/12
vn -0.82687 0.090261 0.555103
v 0.305061 0.310029 0.689557
v 0.317996 0.186037 0.728986
f 286/289/13 285/288/13 287/286/13 288/287/13
vn -0.97536 -0.032348 0.218236
v 0.289 0.282412 0.613681
v 0.303 0.160252 0.658143
f 288/287/14 287/286/14 289/285/14 290/284/14
vn -0.97536 -0.16506 -0.146385
v 0.305061 0.254795 0.537804
vt 0.523628 0.78767
v 0.317996 0.134468 0.587301
vt 0.554563 0.887943
f 290/284/15 289/285/15 291/300/15 292/301/15
vn -0.82687 -0.287669 -0.483252
v 0.3508 0.231383 0.473479
vt 0.483424 0.807181
v 0.3607 0.112609 0.527244
vt 0.517028 0.906159
f 292/301/16 291/300/16 293/302/16 294/303/16
vt 0.412937 0.906159
vn -0.552497 -0.38151 -0.741078
vt 0.40675 0.807181
v 0.419254 0.215739 0.430498
vt 0.449534 0.820217
v 0.424611 0.098003 0.487115
vt 0.452882 0.918331
f 294/304/17 293/305/17 295/306/17 296/307/17
vn -0.194011 -0.432297 -0.880613
v 0.5 0.210246 0.415406
vt 0.5 0.824795
v 0.5 0.092874 0.473024
vt 0.5 0.922605
f 296/307/18 295/306/18 297/308/18 298/309/18
vn 0.194011 -0.432297 -0.880613
v 0.580746 0.215739 0.430498
vt 0.550466 0.820217
v 0.575389 0.098003 0.487115
vt 0.547118 0.918331
f 298/309/19 297/308/19 299/310/19 300/311/19
vn 0.552497 -0.38151 -0.741078
v 0.6492 0.231383 0.473479
vt 0.59325 0.807181
v 0.6393 0.112609 0.527244
vt 0.587063 0.906159
f 300/311/20 299/310/20 301/312/20 302/313/20
vn 0.82687 -0.287669 -0.483252
v 0.694939 0.254795 0.537804
v 0.682004 0.134468 0.587301
f 302/303/21 301/302/21 303/300/21 304/301/21
vn 0.97536 -0.16506 -0.146385
f 304/301/22 303/300/22 274/285/22 273/284/22
vn 0.980785 0.066725 0.183325
v 0.711 0.32 0.6
vt 0.5625 0.733333
v 0.694939 0.347617 0.675877
vt 0.609923 0.710319
f 274/285/23 305/314/23 306/315/23 275/286/23
vn 0.83147 0.190016 0.522065
v 0.6492 0.371029 0.740202
vt 0.650126 0.690809
f 275/286/24 306/315/24 307/316/24 277/288/24
vn 0.55557 0.284379 0.781326
vt 0.59325 0.690809
v 0.580746 0.386673 0.783182
vt 0.550466 0.677773
f 277/291/25 307/317/25 308/318/25 279/292/25
vn 0.19509 0.335448 0.921637
v 0.5 0.392166 0.798275
vt 0.5 0.673195
f 279/292/26 308/318/26 309/319/26 281/294/26
vn -0.19509 0.335448 0.921637
v 0.419254 0.386673 0.783182
vt 0.449534 0.677773
f 281/294/27 309/319/27 310/320/27 283/296/27
vn -0.55557 0.284379 0.781326
v 0.3508 0.371029 0.740202
vt 0.40675 0.690809
f 283/296/28 310/320/28 311/321/28 285/298/28
vn -0.83147 0.190016 0.522065
v 0.305061 0.347617 0.675877
f 285/288/29 311/316/29 312/315/29 287/286/29
vn -0.980785 0.066725 0.183325
v 0.289 0.32 0.6
f 287/286/30 312/315/30 313/314/30 289/285/30
vn -0.980785 -0.066725 -0.183325
v 0.305061 0.292383 0.524123
vt 0.515077 0.756347
f 289/285/31 313/314/31 314/322/31 291/300/31
vn -0.83147 -0.190016 -0.522065
v 0.3508 0.268971 0.459798
vt 0.474874 0.775858
f 291/300/32 314/322/32 315/323/32 293/302/32
vn -0.55557 -0.284379 -0.781326
vt 0.40675 0.775858
v 0.419254 0.253327 0.416818
vt 0.449534 0.788894
f 293/305/33 315/324/33 316/325/33 295/306/33
vn -0.19509 -0.335448 -0.921637
v 0.5 0.247834 0.401725
vt 0.5 0.793472
f 295/306/34 316/325/34 317/326/34 297/308/34
vn 0.19509 -0.335448 -0.921637
v 0.580746 0.253327 0.416818
vt 0.550466 0.788894
f 297/308/35 317/326/35 318/327/35 299/310/35
vn 0.55557 -0.284379 -0.781326
v 0.6492 0.268971 0.459798
vt 0.59325 0.775858
f 299/310/36 318/327/36 319/328/36 301/312/36
vn 0.83147 -0.190016 -0.522065
v 0.694939 0.292383 0.524123
f 301/302/37 319/323/37 320/322/37 303/300/37
vn 0.980785 -0.066725 -0.183325
f 303/300/38 320/322/38 305/314/38 274/285/38
v 0.644125 0.18067 0.714242
vt 0.633901 0.849441
v 0.644125 0.340418 0.656098
vt 0.597561 0.716318
v 0.656 0.32 0.6
v 0.656 0.160252 0.658143
usemtl recess
f 321/329/31 322/330/31 323/314/31 324/284/31
v 0.610309 0.19798 0.7618
vt 0.663625 0.835017
v 0.610309 0.357728 0.703656
vt 0.627285 0.701894
f 325/331/32 326/332/32 322/330/32 321/329/32
v 0.559699 0.209546 0.793577
vt 0.537312 0.825378
v 0.559699 0.369294 0.735433
vt 0.537312 0.692255
vt 0.568943 0.701894
vt 0.568943 0.835017
f 327/333/33 328/334/33 326/335/33 325/336/33
v 0.5 0.213607 0.804735
vt 0.5 0.821994
v 0.5 0.373355 0.746592
vt 0.5 0.688871
f 329/337/34 330/338/34 328/334/34 327/333/34
v 0.440301 0.209546 0.793577
vt 0.462688 0.825378
v 0.440301 0.369294 0.735433
vt 0.462688 0.692255
f 331/339/35 332/340/35 330/338/35 329/337/35
v 0.389691 0.19798 0.7618
vt 0.431057 0.835017
v 0.389691 0.357728 0.703656
vt 0.431057 0.701894
f 333/341/36 334/342/36 332/340/36 331/339/36
v 0.355875 0.18067 0.714242
v 0.355875 0.340418 0.656098
f 335/329/37 336/330/37 334/332/37 333/331/37
v 0.344 0.160252 0.658143
v 0.344 0.32 0.6
f 337/284/38 338/314/38 336/330/38 335/329/38
v 0.355875 0.139834 0.602045
vt 0.563778 0.883472
v 0.355875 0.299582 0.543902
vt 0.527439 0.750348
f 339/343/23 340/344/23 338/314/23 337/284/23
v 0.389691 0.122524 0.554487
vt 0.534054 0.897896
v 0.389691 0.282272 0.496344
vt 0.497715 0.764773
f 341/345/24 342/346/24 340/344/24 339/343/24
v 0.440301 0.110959 0.52271
vt 0.462688 0.907535
v 0.440301 0.270706 0.464567
vt 0.462688 0.774411
vt 0.431057 0.764773
vt 0.431057 0.897896
f 343/347/25 344/348/25 342/349/25 341/350/25
v 0.5 0.106897 0.511551
vt 0.5 0.910919
v 0.5 0.266645 0.453408
vt 0.5 0.777796
f 345/351/26 346/352/26 344/348/26 343/347/26
v 0.559699 0.110959 0.52271
vt 0.537312 0.907535
v 0.559699 0.270706 0.464567
vt 0.537312 0.774411
f 347/353/27 348/354/27 346/352/27 345/351/27
v 0.610309 0.122524 0.554487
vt 0.568943 0.897896
v 0.610309 0.282272 0.496344
vt 0.568943 0.764773
f 349/355/28 350/356/28 348/354/28 347/353/28
v 0.644125 0.139834 0.602045
v 0.644125 0.299582 0.543902
f 351/343/29 352/344/29 350/346/29 349/345/29
f 324/284/30 323/314/30 352/344/30 351/343/30
vt 0.5975 0.5625
vn 0 0.939693 -0.34202
vt 0.590078 0.597561
vt 0.621837 0.609923
vt 0.631875 0.5625
usemtl trim
f 323/357/39 322/358/39 306/359/39 305/360/39
vt 0.568943 0.627285
vt 0.59325 0.650126
f 322/358/39 326/361/39 307/362/39 306/359/39
vt 0.537312 0.647146
vt 0.550466 0.676989
f 326/361/39 328/363/39 308/364/39 307/362/39
vt 0.5 0.65412
vt 0.5 0.686422
f 328/363/39 330/365/39 309/366/39 308/364/39
vt 0.462688 0.647146
vt 0.449534 0.676989
f 330/365/39 332/367/39 310/368/39 309/366/39
vt 0.431057 0.627285
vt 0.40675 0.650126
f 332/367/39 334/369/39 311/370/39 310/368/39
vt 0.409922 0.597561
vt 0.378163 0.609923
f 334/369/39 336/371/39 312/372/39 311/370/39
vt 0.4025 0.5625
vt 0.368125 0.5625
f 336/371/39 338/373/39 313/374/39 312/372/39
vt 0.409922 0.527439
vt 0.378163 0.515077
f 338/373/39 340/375/39 314/376/39 313/374/39
vt 0.431057 0.497715
vt 0.40675 0.474874
f 340/375/39 342/377/39 315/378/39 314/376/39
vt 0.462688 0.477854
vt 0.449534 0.448011
f 342/377/39 344/379/39 316/380/39 315/378/39
vt 0.5 0.47088
vt 0.5 0.438578
f 344/379/39 346/381/39 317/382/39 316/380/39
vt 0.537312 0.477854
vt 0.550466 0.448011
f 346/381/39 348/383/39 318/384/39 317/382/39
vt 0.568943 0.497715
vt 0.59325 0.474874
f 348/383/39 350/385/39 319/386/39 318/384/39
vt 0.590078 0.527439
vt 0.621837 0.515077
f 350/385/39 352/387/39 320/388/39 319/386/39
f 352/387/39 323/357/39 305/360/39 320/388/39
v 0.658 0.323759 0.598632
vt 0.59875 0.561645
v 0.645973 0.344439 0.655449
vt 0.591233 0.597156
v 0.656136 0.345878 0.659405
vt 0.597585 0.599628
v 0.669 0.323759 0.598632
vt 0.605625 0.561645
usemtl binder
f 353/389/39 354/390/39 355/391/39 356/392/39
v 0.611723 0.36197 0.703617
vt 0.569827 0.627261
v 0.619501 0.364631 0.710926
vt 0.574688 0.631829
f 354/390/39 357/393/39 358/394/39 355/391/39
v 0.560464 0.373684 0.735802
vt 0.53779 0.647376
v 0.564674 0.37716 0.745351
vt 0.540421 0.653345
f 357/393/39 359/395/39 360/396/39 358/394/39
v 0.5 0.377798 0.747103
vt 0.5 0.65444
v 0.5 0.38156 0.75744
vt 0.5 0.6609
f 359/395/39 361/397/39 362/398/39 360/396/39
v 0.439536 0.373684 0.735802
vt 0.46221 0.647376
v 0.435326 0.37716 0.745351
vt 0.459579 0.653345
f 361/397/39 363/399/39 364/400/39 362/398/39
v 0.388277 0.36197 0.703617
vt 0.430173 0.627261
v 0.380499 0.364631 0.710926
vt 0.425312 0.631829
f 363/399/39 365/401/39 366/402/39 364/400/39
v 0.354027 0.344439 0.655449
vt 0.408767 0.597156
v 0.343864 0.345878 0.659405
vt 0.402415 0.599628
f 365/401/39 367/403/39 368/404/39 366/402/39
v 0.342 0.323759 0.598632
vt 0.40125 0.561645
v 0.331 0.323759 0.598632
vt 0.394375 0.561645
f 367/403/39 369/405/39 370/406/39 368/404/39
v 0.354027 0.303079 0.541814
vt 0.408767 0.526134
v 0.343864 0.301639 0.537859
vt 0.402415 0.523662
f 369/405/39 371/407/39 372/408/39 370/406/39
v 0.388277 0.285547 0.493647
vt 0.430173 0.496029
v 0.380499 0.282887 0.486338
vt 0.425312 0.491461
f 371/407/39 373/409/39 374/410/39 372/408/39
v 0.439536 0.273833 0.461462
vt 0.46221 0.475914
v 0.435326 0.270357 0.451912
vt 0.459579 0.469945
f 373/409/39 375/411/39 376/412/39 374/410/39
v 0.5 0.26972 0.45016
vt 0.5 0.46885
v 0.5 0.265957 0.439824
vt 0.5 0.46239
f 375/411/39 377/413/39 378/414/39 376/412/39
v 0.560464 0.273833 0.461462
vt 0.53779 0.475914
v 0.564674 0.270357 0.451912
vt 0.540421 0.469945
f 377/413/39 379/415/39 380/416/39 378/414/39
v 0.611723 0.285547 0.493647
vt 0.569827 0.496029
v 0.619501 0.282887 0.486338
vt 0.574688 0.491461
f 379/415/39 381/417/39 382/418/39 380/416/39
v 0.645973 0.303079 0.541814
vt 0.591233 0.526134
v 0.656136 0.301639 0.537859
vt 0.597585 0.523662
f 381/417/39 383/419/39 384/420/39 382/418/39
f 383/419/39 353/389/39 356/392/39 384/420/39
v 0.696 0.148036 0.66259
vt 0.601619 0.876636
v 0.696 0.156493 0.659512
vt 0.599695 0.869589
v 0.68108 0.182147 0.729994
vt 0.643746 0.848211
v 0.68108 0.17369 0.733072
vt 0.64567 0.855259
usemtl recess
f 385/421/23 386/422/23 387/423/23 388/424/23
v 0.638593 0.203895 0.789746
vt 0.681091 0.830087
v 0.638593 0.195438 0.792824
vt 0.683015 0.837135
f 388/424/24 387/423/24 389/425/24 390/426/24
vt 0.586621 0.837135
vt 0.586621 0.830087
v 0.575006 0.218427 0.829671
vt 0.546879 0.817978
v 0.575006 0.209969 0.83275
vt 0.546879 0.825026
f 390/427/25 389/428/25 391/429/25 392/430/25
v 0.5 0.223529 0.843691
vt 0.5 0.813725
v 0.5 0.215072 0.846769
vt 0.5 0.820773
f 392/430/26 391/429/26 393/431/26 394/432/26
v 0.424994 0.218427 0.829671
vt 0.453121 0.817978
v 0.424994 0.209969 0.83275
vt 0.453121 0.825026
f 394/432/27 393/431/27 395/433/27 396/434/27
v 0.361407 0.203895 0.789746
vt 0.413379 0.830087
v 0.361407 0.195438 0.792824
vt 0.413379 0.837135
f 396/434/28 395/433/28 397/435/28 398/436/28
v 0.31892 0.182147 0.729994
v 0.31892 0.17369 0.733072
f 398/426/29 397/425/29 399/423/29 400/424/29
v 0.304 0.156493 0.659512
v 0.304 0.148036 0.66259
f 400/424/30 399/423/30 401/422/30 402/421/30
v 0.31892 0.13084 0.589029
vt 0.555643 0.890967
v 0.31892 0.122383 0.592107
vt 0.557567 0.898014
f 402/421/31 401/422/31 403/437/31 404/438/31
v 0.361407 0.109092 0.529277
vt 0.518298 0.90909
v 0.361407 0.100635 0.532355
vt 0.520222 0.916138
f 404/438/32 403/437/32 405/439/32 406/440/32
vt 0.413379 0.916138
vt 0.413379 0.90909
v 0.424994 0.09456 0.489352
vt 0.453121 0.9212
v 0.424994 0.086103 0.49243
vt 0.453121 0.928247
f 406/441/33 405/442/33 407/443/33 408/444/33
v 0.5 0.089458 0.475332
vt 0.5 0.925452
v 0.5 0.081 0.47841
vt 0.5 0.9325
f 408/444/34 407/443/34 409/445/34 410/446/34
v 0.575006 0.09456 0.489352
vt 0.546879 0.9212
v 0.575006 0.086103 0.49243
vt 0.546879 0.928247
f 410/446/35 409/445/35 411/447/35 412/448/35
v 0.638593 0.109092 0.529277
vt 0.586621 0.90909
v 0.638593 0.100635 0.532355
vt 0.586621 0.916138
f 412/448/36 411/447/36 413/449/36 414/450/36
v 0.68108 0.13084 0.589029
v 0.68108 0.122383 0.592107
f 414/440/37 413/439/37 415/437/37 416/438/37
f 416/438/38 415/437/38 386/422/38 385/421/38
v 0.5 0.148036 0.66259
vt 0.5 0.601619
vn 0 -0.939693 0.34202
vt 0.6225 0.601619
vt 0.613175 0.64567
f 417/451/40 385/452/40 388/453/40
v 0.5 0.156493 0.659512
vt 0.5 0.599695
vt 0.613175 0.643746
vt 0.6225 0.599695
f 418/454/39 387/455/39 386/456/39
vt 0.586621 0.683015
f 417/451/40 388/453/40 390/457/40
vt 0.586621 0.681091
f 418/454/39 389/458/39 387/455/39
vt 0.546879 0.707968
f 417/451/40 390/457/40 392/459/40
vt 0.546879 0.706045
f 418/454/39 391/460/39 389/458/39
vt 0.5 0.716731
f 417/451/40 392/459/40 394/461/40
vt 0.5 0.714807
f 418/454/39 393/462/39 391/460/39
vt 0.453121 0.707968
f 417/451/40 394/461/40 396/463/40
vt 0.453121 0.706045
f 418/454/39 395/464/39 393/462/39
vt 0.413379 0.683015
f 417/451/40 396/463/40 398/465/40
vt 0.413379 0.681091
f 418/454/39 397/466/39 395/464/39
vt 0.386825 0.64567
f 417/451/40 398/465/40 400/467/40
vt 0.386825 0.643746
f 418/454/39 399/468/39 397/466/39
vt 0.3775 0.601619
f 417/451/40 400/467/40 402/469/40
vt 0.3775 0.599695
f 418/454/39 401/470/39 399/468/39
vt 0.386825 0.557567
f 417/451/40 402/469/40 404/471/40
vt 0.386825 0.555643
f 418/454/39 403/472/39 401/470/39
vt 0.413379 0.520222
f 417/451/40 404/471/40 406/473/40
vt 0.413379 0.518298
f 418/454/39 405/474/39 403/472/39
vt 0.453121 0.495269
f 417/451/40 406/473/40 408/475/40
vt 0.453121 0.493345
f 418/454/39 407/476/39 405/474/39
vt 0.5 0.486506
f 417/451/40 408/475/40 410/477/40
vt 0.5 0.484582
f 418/454/39 409/478/39 407/476/39
vt 0.546879 0.495269
f 417/451/40 410/477/40 412/479/40
vt 0.546879 0.493345
f 418/454/39 411/480/39 409/478/39
vt 0.586621 0.520222
f 417/451/40 412/479/40 414/481/40
vt 0.586621 0.518298
f 418/454/39 413/482/39 411/480/39
vt 0.613175 0.557567
f 417/451/40 414/481/40 416/483/40
vt 0.613175 0.555643
f 418/454/39 415/484/39 413/482/39
f 417/451/40 416/483/40 385/452/40
f 418/454/39 386/456/39 415/484/39
v 0.675 0.280954 0.595056
vt 0.609375 0.765871
vn 0 -0.34202 -0.939693
v 0.675 0.332637 0.576245
vt 0.609375 0.722802
v 0.711 0.332637 0.576245
vt 0.631875 0.722802
v 0.711 0.280954 0.595056
vt 0.631875 0.765871
usemtl trim
f 419/485/41 420/486/41 421/487/41 422/488/41
v 0.711 0.293267 0.628885
vt 0.631875 0.755611
vn 0 0.34202 0.939693
v 0.711 0.34495 0.610074
vt 0.631875 0.712541
v 0.675 0.34495 0.610074
vt 0.609375 0.712541
v 0.675 0.293267 0.628885
vt 0.609375 0.755611
f 423/489/42 424/490/42 425/491/42 426/492/42
vt 0.580553 0.755611
vt 0.568796 0.712541
vt 0.547653 0.722802
vt 0.55941 0.765871
f 426/493/3 425/494/3 420/495/3 419/496/3
f 422/496/4 421/495/4 424/494/4 423/493/4
vt 0.609375 0.547653
vt 0.609375 0.568796
vt 0.631875 0.568796
vt 0.631875 0.547653
f 420/497/39 425/498/39 424/499/39 421/500/39
vt 0.609375 0.580553
vt 0.609375 0.55941
vt 0.631875 0.55941
vt 0.631875 0.580553
f 426/501/40 419/502/40 422/503/40 423/504/40
v 0.482 0.346964 0.776417
vt 0.48875 0.710863
v 0.482 0.398647 0.757606
vt 0.48875 0.667794
v 0.518 0.398647 0.757606
vt 0.51125 0.667794
v 0.518 0.346964 0.776417
vt 0.51125 0.710863
f 427/505/41 428/506/41 429/507/41 430/508/41
v 0.518 0.359277 0.810246
vt 0.51125 0.700602
v 0.518 0.41096 0.791435
vt 0.51125 0.657533
v 0.482 0.41096 0.791435
vt 0.48875 0.657533
v 0.482 0.359277 0.810246
vt 0.48875 0.700602
f 431/509/42 432/510/42 433/511/42 434/512/42
vt 0.693904 0.700602
vt 0.682147 0.657533
vt 0.661004 0.667794
vt 0.672761 0.710863
f 434/513/3 433/514/3 428/515/3 427/516/3
f 430/516/4 429/515/4 432/514/4 431/513/4
vt 0.48875 0.661004
vt 0.48875 0.682147
vt 0.51125 0.682147
vt 0.51125 0.661004
f 428/517/39 433/518/39 432/519/39 429/520/39
vt 0.48875 0.693904
vt 0.48875 0.672761
vt 0.51125 0.672761
vt 0.51125 0.693904
f 434/521/40 427/522/40 430/523/40 431/524/40
v 0.289 0.280954 0.595056
vt 0.368125 0.765871
v 0.289 0.332637 0.576245
vt 0.368125 0.722802
v 0.325 0.332637 0.576245
vt 0.390625 0.722802
v 0.325 0.280954 0.595056
vt 0.390625 0.765871
f 435/525/41 436/526/41 437/527/41 438/528/41
v 0.325 0.293267 0.628885
vt 0.390625 0.755611
v 0.325 0.34495 0.610074
vt 0.390625 0.712541
v 0.289 0.34495 0.610074
vt 0.368125 0.712541
v 0.289 0.293267 0.628885
vt 0.368125 0.755611
f 439/529/42 440/530/42 441/531/42 442/532/42
f 442/493/3 441/494/3 436/495/3 435/496/3
f 438/496/4 437/495/4 440/494/4 439/493/4
vt 0.368125 0.547653
vt 0.368125 0.568796
vt 0.390625 0.568796
vt 0.390625 0.547653
f 436/533/39 441/534/39 440/535/39 437/536/39
vt 0.368125 0.580553
vt 0.368125 0.55941
vt 0.390625 0.55941
vt 0.390625 0.580553
f 442/537/40 435/538/40 438/539/40 439/540/40
v 0.482 0.214945 0.413696
vt 0.48875 0.82088
v 0.482 0.266628 0.394884
vt 0.48875 0.77781
v 0.518 0.266628 0.394884
vt 0.51125 0.77781
v 0.518 0.214945 0.413696
vt 0.51125 0.82088
f 443/541/41 444/542/41 445/543/41 446/544/41
v 0.518 0.227257 0.447524
vt 0.51125 0.810619
v 0.518 0.27894 0.428713
vt 0.51125 0.76755
v 0.482 0.27894 0.428713
vt 0.48875 0.76755
v 0.482 0.227257 0.447524
vt 0.48875 0.810619
f 447/545/42 448/546/42 449/547/42 450/548/42
vt 0.467203 0.810619
vt 0.455446 0.76755
vt 0.434303 0.77781
vt 0.44606 0.82088
f 450/549/3 449/550/3 444/551/3 443/552/3
f 446/552/4 445/551/4 448/550/4 447/549/4
vt 0.48875 0.434303
vt 0.48875 0.455446
vt 0.51125 0.455446
vt 0.51125 0.434303
f 444/553/39 449/554/39 448/555/39 445/556/39
vt 0.48875 0.467203
vt 0.48875 0.44606
vt 0.51125 0.44606
vt 0.51125 0.467203
f 450/557/40 443/558/40 446/559/40 447/560/40
v 0.248 0.69 0.847
vt 0.3425 0.425
v 0.248 0.82 0.847
vt 0.3425 0.316667
v 0.272 0.82 0.847
vt 0.3575 0.316667
v 0.272 0.69 0.847
vt 0.3575 0.425
f 451/561/1 452/562/1 453/563/1 454/564/1
v 0.272 0.69 0.861
v 0.272 0.82 0.861
v 0.248 0.82 0.861
v 0.248 0.69 0.861
f 455/564/2 456/563/2 457/562/2 458/561/2
vt 0.725625 0.425
vt 0.725625 0.316667
vt 0.716875 0.316667
vt 0.716875 0.425
f 458/565/3 457/566/3 452/567/3 451/568/3
f 454/568/4 453/567/4 456/566/4 455/565/4
vt 0.3425 0.716875
vt 0.3425 0.725625
vt 0.3575 0.725625
vt 0.3575 0.716875
f 452/569/5 457/570/5 456/571/5 453/572/5
f 458/570/6 451/569/6 454/572/6 455/571/6
v 0.26 0.8 0.847
vt 0.35 0.333333
v 0.26 0.824 0.847
vt 0.35 0.313333
v 0.512 0.824 0.847
vt 0.5075 0.313333
v 0.512 0.8 0.847
vt 0.5075 0.333333
f 459/573/1 460/574/1 461/575/1 462/576/1
v 0.512 0.8 0.861
v 0.512 0.824 0.861
v 0.26 0.824 0.861
v 0.26 0.8 0.861
f 463/576/2 464/575/2 465/574/2 466/573/2
vt 0.725625 0.333333
vt 0.725625 0.313333
vt 0.716875 0.313333
vt 0.716875 0.333333
f 466/577/3 465/578/3 460/579/3 459/580/3
f 462/580/4 461/579/4 464/578/4 463/577/4
vt 0.35 0.716875
vt 0.35 0.725625
vt 0.5075 0.725625
vt 0.5075 0.716875
f 460/581/5 465/582/5 464/583/5 461/584/5
f 466/582/6 459/581/6 462/584/6 463/583/6
v 0.728 0.69 0.847
vt 0.6425 0.425
v 0.728 0.82 0.847
vt 0.6425 0.316667
v 0.752 0.82 0.847
vt 0.6575 0.316667
v 0.752 0.69 0.847
vt 0.6575 0.425
f 467/585/1 468/586/1 469/587/1 470/588/1
v 0.752 0.69 0.861
v 0.752 0.82 0.861
v 0.728 0.82 0.861
v 0.728 0.69 0.861
f 471/588/2 472/587/2 473/586/2 474/585/2
f 474/565/3 473/566/3 468/567/3 467/568/3
f 470/568/4 469/567/4 472/566/4 471/565/4
vt 0.6425 0.716875
vt 0.6425 0.725625
vt 0.6575 0.725625
vt 0.6575 0.716875
f 468/589/5 473/590/5 472/591/5 469/592/5
f 474/590/6 467/589/6 470/592/6 471/591/6
v 0.5 0.8 0.847
vt 0.5 0.333333
v 0.5 0.824 0.847
vt 0.5 0.313333
v 0.752 0.824 0.847
vt 0.6575 0.313333
v 0.752 0.8 0.847
vt 0.6575 0.333333
f 475/593/1 476/594/1 477/595/1 478/596/1
v 0.752 0.8 0.861
v 0.752 0.824 0.861
v 0.5 0.824 0.861
v 0.5 0.8 0.861
f 479/596/2 480/595/2 481/594/2 482/593/2
f 482/577/3 481/578/3 476/579/3 475/580/3
f 478/580/4 477/579/4 480/578/4 479/577/4
vt 0.5 0.716875
vt 0.5 0.725625
f 476/597/5 481/598/5 480/591/5 477/592/5
f 482/598/6 475/597/6 478/592/6 479/591/6
