# Original parametric JSG-ZPM artwork; see tools/build_ancient_assets.py
mtllib ancient_zpm_column.mtl
o ancient_hardware
v 0.829018 0.644125 0.913444
vt 0.705636 0.758403
vn 0.13795 -0.980785 -0.13795
v 0.457787 0.644125 0.542213
vt 0.473617 0.526383
v 0.5 0.656 0.5
vt 0.5 0.5
v 0.871231 0.656 0.871231
vt 0.732019 0.732019
usemtl recess
f 1/1/1 2/2/1 3/3/1 4/4/1
v 0.793231 0.610309 0.949231
vt 0.683269 0.780769
vn 0.392847 -0.83147 -0.392847
v 0.422 0.610309 0.578
vt 0.45125 0.54875
f 5/5/2 6/6/2 2/2/2 1/1/2
v 0.769319 0.559699 0.973143
vt 0.795714 0.533584
vn 0.587938 -0.55557 -0.587938
v 0.398088 0.559699 0.601912
vt 0.563695 0.533584
vt 0.54875 0.491409
vt 0.780769 0.491409
f 7/7/3 8/8/3 6/9/3 5/10/3
v 0.760922 0.5 0.98154
vt 0.800962 0.583333
vn 0.69352 -0.19509 -0.69352
v 0.389691 0.5 0.610309
vt 0.568943 0.583333
f 9/11/4 10/12/4 8/8/4 7/7/4
v 0.769319 0.440301 0.973143
vt 0.795714 0.633082
vn 0.69352 0.19509 -0.69352
v 0.398088 0.440301 0.601912
vt 0.563695 0.633082
f 11/13/5 12/14/5 10/12/5 9/11/5
v 0.793231 0.389691 0.949231
vt 0.683269 0.675257
vn 0.587938 0.55557 -0.587938
v 0.422 0.389691 0.578
vt 0.45125 0.675257
vt 0.436305 0.633082
vt 0.668324 0.633082
f 13/15/6 14/16/6 12/17/6 11/18/6
v 0.829018 0.355875 0.913444
vn 0.392847 0.83147 -0.392847
v 0.457787 0.355875 0.542213
f 15/1/7 16/2/7 14/6/7 13/5/7
v 0.871231 0.344 0.871231
vn 0.13795 0.980785 -0.13795
v 0.5 0.344 0.5
f 17/4/8 18/3/8 16/2/8 15/1/8
v 0.913444 0.355875 0.829018
vt 0.758403 0.705636
vn -0.13795 0.980785 0.13795
v 0.542213 0.355875 0.457787
vt 0.526383 0.473617
f 19/19/9 20/20/9 18/3/9 17/4/9
v 0.949231 0.389691 0.793231
vt 0.780769 0.683269
vn -0.392847 0.83147 0.392847
v 0.578 0.389691 0.422
vt 0.54875 0.45125
f 21/21/10 22/22/10 20/20/10 19/19/10
v 0.973143 0.440301 0.769319
vn -0.587938 0.55557 0.587938
v 0.601912 0.440301 0.398088
f 23/18/11 24/17/11 22/16/11 21/15/11
v 0.98154 0.5 0.760922
vn -0.69352 0.19509 0.69352
v 0.610309 0.5 0.389691
f 25/11/12 26/12/12 24/14/12 23/13/12
v 0.973143 0.559699 0.769319
vt 0.668324 0.533584
vn -0.69352 -0.19509 0.69352
v 0.601912 0.559699 0.398088
vt 0.436305 0.533584
vt 0.431057 0.583333
vt 0.663077 0.583333
f 27/23/13 28/24/13 26/25/13 25/26/13
v 0.949231 0.610309 0.793231
vn -0.587938 -0.55557 0.587938
v 0.578 0.610309 0.422
f 29/10/14 30/9/14 28/8/14 27/7/14
v 0.913444 0.644125 0.829018
vn -0.392847 -0.83147 0.392847
v 0.542213 0.644125 0.457787
f 31/19/15 32/20/15 30/22/15 29/21/15
vn -0.13795 -0.980785 0.13795
f 4/4/16 3/3/16 32/20/16 31/19/16
vt 0.5 0.453333
vn -0.707107 0 -0.707107
vt 0.526383 0.463229
v 0.442904 0.694939 0.557096
vt 0.535685 0.420885
v 0.5 0.711 0.5
vt 0.5 0.4075
usemtl trim
f 3/27/17 2/28/17 33/29/17 34/30/17
v 0.3945 0.6492 0.6055
vt 0.565937 0.459
f 2/28/17 6/9/17 35/31/17 33/29/17
v 0.362158 0.580746 0.637842
vt 0.586151 0.516045
f 6/9/17 8/8/17 36/32/17 35/31/17
v 0.3508 0.5 0.6492
vt 0.59325 0.583333
f 8/8/17 10/12/17 37/33/17 36/32/17
v 0.362158 0.419254 0.637842
vt 0.586151 0.650622
f 10/12/17 12/14/17 38/34/17 37/33/17
vt 0.54875 0.675257
v 0.3945 0.3508 0.6055
vt 0.565937 0.707666
f 12/14/17 14/35/17 39/36/17 38/34/17
vt 0.526383 0.703438
v 0.442904 0.305061 0.557096
vt 0.535685 0.745782
f 14/35/17 16/37/17 40/38/17 39/36/17
vt 0.5 0.713333
v 0.5 0.289 0.5
vt 0.5 0.759167
f 16/37/17 18/39/17 41/40/17 40/38/17
v 0.557096 0.305061 0.442904
f 18/39/17 20/37/17 42/38/17 41/40/17
vt 0.473617 0.703438
v 0.6055 0.3508 0.3945
vt 0.434063 0.707666
vt 0.464315 0.745782
f 20/41/17 22/16/17 43/42/17 42/43/17
v 0.637842 0.419254 0.362158
vt 0.413849 0.650622
f 22/16/17 24/17/17 44/44/17 43/42/17
v 0.6492 0.5 0.3508
f 24/14/17 26/12/17 45/33/17 44/34/17
v 0.637842 0.580746 0.362158
vt 0.413849 0.516045
vt 0.40675 0.583333
f 26/25/17 28/24/17 46/45/17 45/46/17
vt 0.45125 0.491409
v 0.6055 0.6492 0.3945
vt 0.434062 0.459
f 28/24/17 30/47/17 47/48/17 46/45/17
v 0.557096 0.694939 0.442904
f 30/9/17 32/28/17 48/29/17 47/31/17
vt 0.473617 0.463229
vt 0.464315 0.420885
f 32/49/17 3/27/17 34/30/17 48/50/17
v 0.497172 0.658 0.497172
vt 0.498232 0.451667
v 0.454417 0.645973 0.539926
vt 0.524954 0.461689
v 0.451441 0.656136 0.542903
vt 0.526814 0.45322
v 0.497172 0.669 0.497172
vt 0.498232 0.4425
usemtl binder
f 49/51/17 50/52/17 51/53/17 52/54/17
v 0.418172 0.611723 0.576172
vt 0.547607 0.490231
v 0.412672 0.619501 0.581672
vt 0.551045 0.483749
f 50/52/17 53/55/17 54/56/17 51/53/17
v 0.393953 0.560464 0.60039
vt 0.562744 0.532947
v 0.386767 0.564674 0.607576
vt 0.567235 0.529439
f 53/55/17 55/57/17 56/58/17 54/56/17
v 0.385449 0.5 0.608894
vt 0.568059 0.583333
v 0.377671 0.5 0.616673
vt 0.57292 0.583333
f 55/57/17 57/59/17 58/60/17 56/58/17
v 0.393953 0.439536 0.60039
vt 0.562744 0.63372
v 0.386767 0.435326 0.607576
vt 0.567235 0.637228
f 57/59/17 59/61/17 60/62/17 58/60/17
v 0.418172 0.388277 0.576172
vt 0.547607 0.676436
v 0.412672 0.380499 0.581672
vt 0.551045 0.682918
f 59/61/17 61/63/17 62/64/17 60/62/17
v 0.454417 0.354027 0.539926
vt 0.524954 0.704977
v 0.451441 0.343864 0.542903
vt 0.526814 0.713446
f 61/63/17 63/65/17 64/66/17 62/64/17
v 0.497172 0.342 0.497172
vt 0.498232 0.715
v 0.497172 0.331 0.497172
vt 0.498232 0.724167
f 63/65/17 65/67/17 66/68/17 64/66/17
v 0.539926 0.354027 0.454417
vt 0.471511 0.704977
v 0.542903 0.343864 0.451441
vt 0.46965 0.713446
f 65/67/17 67/69/17 68/70/17 66/68/17
v 0.576172 0.388277 0.418172
vt 0.448857 0.676436
v 0.581672 0.380499 0.412672
vt 0.44542 0.682918
f 67/69/17 69/71/17 70/72/17 68/70/17
v 0.60039 0.439536 0.393953
v 0.607576 0.435326 0.386767
f 69/63/17 71/61/17 72/62/17 70/64/17
vt 0.433721 0.63372
v 0.608894 0.5 0.385449
vt 0.428405 0.583333
v 0.616673 0.5 0.377671
vt 0.423544 0.583333
vt 0.429229 0.637228
f 71/73/17 73/74/17 74/75/17 72/76/17
v 0.60039 0.560464 0.393953
v 0.607576 0.564674 0.386767
f 73/59/17 75/57/17 76/58/17 74/60/17
vt 0.433721 0.532947
v 0.576172 0.611723 0.418172
vt 0.448857 0.490231
v 0.581672 0.619501 0.412672
vt 0.44542 0.483749
vt 0.429229 0.529439
f 75/77/17 77/78/17 78/79/17 76/80/17
v 0.539926 0.645973 0.454417
v 0.542903 0.656136 0.451441
f 77/55/17 79/52/17 80/53/17 78/56/17
vt 0.471511 0.461689
vt 0.46965 0.45322
f 79/81/17 49/51/17 52/54/17 80/82/17
v 0.874059 0.656 0.874059
vt 0.733787 0.733787
v 0.831846 0.644125 0.916273
vt 0.707404 0.76017
usemtl recess
f 81/83/9 4/4/9 1/1/9 82/84/9
v 0.796059 0.610309 0.952059
vt 0.685037 0.782537
f 82/84/10 1/1/10 5/5/10 83/85/10
vt 0.782537 0.491409
v 0.772148 0.559699 0.975971
vt 0.797482 0.533584
f 83/86/11 5/10/11 7/7/11 84/87/11
v 0.763751 0.5 0.984368
vt 0.80273 0.583333
f 84/87/12 7/7/12 9/11/12 85/88/12
vt 0.664844 0.583333
v 0.772148 0.440301 0.975971
vt 0.670092 0.633082
f 85/89/13 9/26/13 11/18/13 86/90/13
vt 0.797482 0.633082
vt 0.780769 0.675257
v 0.796059 0.389691 0.952059
vt 0.782537 0.675257
f 86/91/14 11/13/14 13/92/14 87/93/14
v 0.831846 0.355875 0.916273
f 87/85/15 13/5/15 15/1/15 88/84/15
v 0.874059 0.344 0.874059
f 88/84/16 15/1/16 17/4/16 89/83/16
v 0.916273 0.355875 0.831846
vt 0.76017 0.707404
f 89/83/1 17/4/1 19/19/1 90/94/1
v 0.952059 0.389691 0.796059
vt 0.782537 0.685037
f 90/94/2 19/19/2 21/21/2 91/95/2
vt 0.685037 0.675257
v 0.975971 0.440301 0.772148
f 91/96/3 21/15/3 23/18/3 92/90/3
v 0.984368 0.5 0.763751
f 92/90/4 23/18/4 25/26/4 93/89/4
v 0.975971 0.559699 0.772148
vt 0.670092 0.533584
f 93/89/5 25/26/5 27/23/5 94/97/5
vt 0.683269 0.491409
v 0.952059 0.610309 0.796059
vt 0.685037 0.491409
f 94/97/6 27/23/6 29/98/6 95/99/6
v 0.916273 0.644125 0.831846
f 95/95/7 29/21/7 31/19/7 96/94/7
f 96/94/8 31/19/8 4/4/8 81/83/8
v 0.874059 0.5 0.874059
vt 0.733787 0.583333
vn 0.707107 -0 0.707107
vt 0.733787 0.453333
vt 0.707404 0.463229
f 97/100/18 81/101/18 82/102/18
v 0.871231 0.5 0.871231
vt 0.732019 0.583333
vt 0.758403 0.463229
vt 0.732019 0.453333
f 98/103/17 1/104/17 4/105/17
vt 0.76017 0.463229
f 97/100/18 82/106/18 83/86/18
f 98/103/17 5/10/17 1/104/17
f 97/100/18 83/86/18 84/87/18
f 98/103/17 7/7/17 5/10/17
f 97/100/18 84/87/18 85/88/18
f 98/103/17 9/11/17 7/7/17
f 97/100/18 85/88/18 86/91/18
f 98/103/17 11/13/17 9/11/17
f 97/100/18 86/91/18 87/93/18
f 98/103/17 13/92/17 11/13/17
vt 0.76017 0.703438
f 97/100/18 87/93/18 88/107/18
vt 0.705636 0.703438
f 98/103/17 15/108/17 13/15/17
vt 0.733787 0.713333
f 97/100/18 88/107/18 89/109/18
vt 0.732019 0.713333
vt 0.758403 0.703438
f 98/103/17 17/110/17 15/111/17
vt 0.707404 0.703438
f 97/100/18 89/109/18 90/112/18
f 98/103/17 19/108/17 17/110/17
f 97/100/18 90/112/18 91/96/18
f 98/103/17 21/15/17 19/108/17
f 97/100/18 91/96/18 92/90/18
f 98/103/17 23/18/17 21/15/17
f 97/100/18 92/90/18 93/89/18
f 98/103/17 25/26/17 23/18/17
f 97/100/18 93/89/18 94/97/18
f 98/103/17 27/23/17 25/26/17
f 97/100/18 94/97/18 95/99/18
f 98/103/17 29/98/17 27/23/17
f 97/100/18 95/99/18 96/102/18
vt 0.705636 0.463229
f 98/103/17 31/113/17 29/98/17
f 97/100/18 96/102/18 81/101/18
f 98/103/17 4/105/17 31/113/17
v 0.299106 0.965 0.700894
vt 0.625558 0.195833
v 0.5 0.965 0.5
vt 0.5 0.195833
usemtl panel
f 34/30/17 33/29/17 99/114/17 100/115/17
v 0.5 0.965 0.995
vt 0.5 0.809375
vn 0 1 0
vt 0.374442 0.625558
v 0.299106 0.965 0.995
vt 0.374442 0.809375
f 101/116/19 100/3/19 99/117/19 102/118/19
v 0.5 0.5 0.995
vt 0.5 0.583333
vn -0 0 1
vt 0.374442 0.195833
usemtl recess
f 103/119/20 101/115/20 102/120/20
v 0.015 0.965 0.985
vt 0.803125 0.195833
usemtl panel
f 33/29/17 35/31/17 104/121/17 99/114/17
vt 0.196875 0.803125
v 0.015 0.965 0.995
vt 0.196875 0.809375
f 102/118/19 99/117/19 104/122/19 105/123/19
vt 0.196875 0.195833
usemtl recess
f 103/119/20 102/120/20 105/124/20
v 0.015 0.692609 0.985
vt 0.803125 0.422826
usemtl panel
f 35/31/17 36/32/17 106/125/17 104/121/17
vt 0.809375 0.195833
vn -1 0 -0
v 0.015 0.692609 0.995
vt 0.809375 0.422826
f 105/126/21 104/121/21 106/125/21 107/127/21
vt 0.196875 0.422826
usemtl recess
f 103/119/20 105/124/20 107/128/20
v 0.015 0.5 0.985
vt 0.803125 0.583333
usemtl panel
f 36/32/17 37/33/17 108/129/17 106/125/17
v 0.015 0.5 0.995
vt 0.809375 0.583333
f 107/127/21 106/125/21 108/129/21 109/130/21
vt 0.196875 0.583333
usemtl recess
f 103/119/20 107/128/20 109/131/20
v 0.015 0.307391 0.985
vt 0.803125 0.743841
usemtl panel
f 37/33/17 38/34/17 110/132/17 108/129/17
v 0.015 0.307391 0.995
vt 0.809375 0.743841
f 109/130/21 108/129/21 110/132/21 111/133/21
vt 0.196875 0.743841
usemtl recess
f 103/119/20 109/131/20 111/134/20
v 0.015 0.035 0.985
vt 0.803125 0.970833
usemtl panel
f 38/34/17 39/36/17 112/135/17 110/132/17
v 0.015 0.035 0.995
vt 0.809375 0.970833
f 111/133/21 110/132/21 112/135/21 113/136/21
vt 0.196875 0.970833
usemtl recess
f 103/119/20 111/134/20 113/137/20
v 0.299106 0.035 0.700894
vt 0.625558 0.970833
usemtl panel
f 39/36/17 40/38/17 114/138/17 112/135/17
vn -0 -1 -0
v 0.299106 0.035 0.995
f 113/123/22 112/122/22 114/117/22 115/118/22
vt 0.374442 0.970833
usemtl recess
f 103/119/20 113/137/20 115/139/20
v 0.5 0.035 0.5
vt 0.5 0.970833
usemtl panel
f 40/38/17 41/40/17 116/140/17 114/138/17
v 0.5 0.035 0.995
f 115/118/22 114/117/22 116/3/22 117/116/22
usemtl recess
f 103/119/20 115/139/20 117/140/20
v 0.700894 0.035 0.299106
usemtl panel
f 41/40/17 42/43/17 118/139/17 116/140/17
vt 0.625558 0.374442
v 0.700894 0.035 0.995
vt 0.625558 0.809375
f 117/116/22 116/3/22 118/141/22 119/142/22
usemtl recess
f 103/119/20 117/140/20 119/138/20
v 0.985 0.035 0.015
usemtl panel
f 42/43/17 43/42/17 120/137/17 118/139/17
vt 0.803125 0.196875
v 0.985 0.035 0.995
vt 0.803125 0.809375
f 119/142/22 118/141/22 120/143/22 121/144/22
usemtl recess
f 103/119/20 119/138/20 121/135/20
v 0.985 0.307391 0.015
usemtl panel
f 43/36/17 44/34/17 122/132/17 120/135/17
vn 1 -0 0
v 0.985 0.307391 0.995
f 121/136/23 120/137/23 122/134/23 123/133/23
usemtl recess
f 103/119/20 121/135/20 123/132/20
v 0.985 0.5 0.015
usemtl panel
f 44/44/17 45/46/17 124/131/17 122/134/17
v 0.985 0.5 0.995
f 123/133/23 122/134/23 124/131/23 125/130/23
usemtl recess
f 103/119/20 123/132/20 125/129/20
v 0.985 0.692609 0.015
usemtl panel
f 45/46/17 46/45/17 126/128/17 124/131/17
v 0.985 0.692609 0.995
f 125/130/23 124/131/23 126/128/23 127/127/23
usemtl recess
f 103/119/20 125/129/20 127/125/20
v 0.985 0.965 0.015
usemtl panel
f 46/45/17 47/48/17 128/124/17 126/128/17
v 0.985 0.965 0.995
f 127/127/23 126/128/23 128/124/23 129/126/23
usemtl recess
f 103/119/20 127/125/20 129/121/20
v 0.700894 0.965 0.299106
usemtl panel
f 47/48/17 48/50/17 130/120/17 128/124/17
v 0.700894 0.965 0.995
f 129/144/19 128/143/19 130/141/19 131/142/19
usemtl recess
f 103/119/20 129/121/20 131/114/20
usemtl panel
f 48/50/17 34/30/17 100/115/17 130/120/17
f 131/142/19 130/141/19 100/3/19 101/116/19
usemtl recess
f 103/119/20 131/114/20 101/115/20
v 0.930628 0.065 0.067958
vt 0.769143 0.945833
vn 0.707107 0 -0.707107
v 0.922143 0.065 0.059472
vt 0.763839 0.945833
v 0.922143 0.087 0.059472
vt 0.763839 0.9275
v 0.930628 0.087 0.067958
vt 0.769143 0.9275
usemtl trim
f 132/145/24 133/146/24 134/147/24 135/148/24
v 0.067958 0.087 0.930628
vn -0.707107 0 0.707107
v 0.059472 0.087 0.922143
v 0.059472 0.065 0.922143
v 0.067958 0.065 0.930628
f 136/148/25 137/147/25 138/146/25 139/145/25
vt 0.229974 0.769143
vt 0.22467 0.763839
vt 0.763839 0.22467
vt 0.769143 0.229974
f 139/149/22 138/150/22 133/151/22 132/152/22
f 135/152/19 134/151/19 137/150/19 136/149/19
vt 0.22467 0.945833
vt 0.22467 0.9275
f 133/153/17 138/146/17 137/147/17 134/154/17
vt 0.229974 0.945833
vt 0.229974 0.9275
f 139/145/18 132/155/18 135/156/18 136/148/18
v 0.589095 0.07 0.391106
vt 0.431941 0.941667
v 0.58556 0.07 0.38757
vt 0.429731 0.941667
v 0.58556 0.082 0.38757
vt 0.429731 0.931667
v 0.589095 0.082 0.391106
vt 0.431941 0.931667
usemtl light
f 140/157/24 141/158/24 142/159/24 143/160/24
v 0.391106 0.082 0.589095
v 0.38757 0.082 0.58556
v 0.38757 0.07 0.58556
v 0.391106 0.07 0.589095
f 144/160/25 145/159/25 146/158/25 147/157/25
vt 0.431941 0.555685
vt 0.429731 0.553475
vt 0.553475 0.429731
vt 0.555685 0.431941
f 147/161/22 146/162/22 141/163/22 140/164/22
f 143/164/19 142/163/19 145/162/19 144/161/19
vt 0.553475 0.941667
vt 0.553475 0.931667
f 141/158/17 146/165/17 145/166/17 142/159/17
vt 0.555685 0.941667
vt 0.555685 0.931667
f 147/167/18 140/157/18 143/160/18 144/168/18
v 0.930628 0.913 0.067958
vt 0.769143 0.239167
v 0.922143 0.913 0.059472
vt 0.763839 0.239167
v 0.922143 0.935 0.059472
vt 0.763839 0.220833
v 0.930628 0.935 0.067958
vt 0.769143 0.220833
usemtl trim
f 148/169/24 149/170/24 150/171/24 151/172/24
v 0.067958 0.935 0.930628
v 0.059472 0.935 0.922143
v 0.059472 0.913 0.922143
v 0.067958 0.913 0.930628
f 152/172/25 153/171/25 154/170/25 155/169/25
f 155/149/22 154/150/22 149/151/22 148/152/22
f 151/152/19 150/151/19 153/150/19 152/149/19
vt 0.22467 0.239167
vt 0.22467 0.220833
f 149/173/17 154/170/17 153/171/17 150/174/17
vt 0.229974 0.239167
vt 0.229974 0.220833
f 155/169/18 148/175/18 151/176/18 152/172/18
v 0.589095 0.918 0.391106
vt 0.431941 0.235
v 0.58556 0.918 0.38757
vt 0.429731 0.235
v 0.58556 0.93 0.38757
vt 0.429731 0.225
v 0.589095 0.93 0.391106
vt 0.431941 0.225
usemtl light
f 156/177/24 157/178/24 158/179/24 159/180/24
v 0.391106 0.93 0.589095
v 0.38757 0.93 0.58556
v 0.38757 0.918 0.58556
v 0.391106 0.918 0.589095
f 160/180/25 161/179/25 162/178/25 163/177/25
f 163/161/22 162/162/22 157/163/22 156/164/22
f 159/164/19 158/163/19 161/162/19 160/161/19
vt 0.553475 0.235
vt 0.553475 0.225
f 157/178/17 162/181/17 161/182/17 158/179/17
vt 0.555685 0.235
vt 0.555685 0.225
f 163/183/18 156/177/18 159/180/18 160/184/18
v 0.94477 0.065 0.053816
vt 0.221135 0.945833
v 0.936285 0.065 0.04533
vt 0.215831 0.945833
v 0.936285 0.935 0.04533
vt 0.215831 0.220833
v 0.94477 0.935 0.053816
vt 0.221135 0.220833
usemtl trim
f 164/185/24 165/186/24 166/187/24 167/188/24
f 151/172/25 150/171/25 133/146/25 132/145/25
vt 0.772678 0.215831
vt 0.777981 0.221135
f 132/152/22 133/151/22 165/189/22 164/190/22
f 167/190/19 166/189/19 150/151/19 151/152/19
vt 0.772678 0.945833
vt 0.772678 0.220833
f 165/191/17 133/146/17 150/171/17 166/192/17
f 132/155/18 164/185/18 167/188/18 151/176/18
f 139/145/24 138/146/24 153/171/24 152/172/24
v 0.053816 0.935 0.94477
vt 0.777981 0.220833
v 0.04533 0.935 0.936285
v 0.04533 0.065 0.936285
v 0.053816 0.065 0.94477
vt 0.777981 0.945833
f 168/193/25 169/192/25 170/191/25 171/194/25
vt 0.221135 0.777981
vt 0.215831 0.772678
f 171/195/22 170/196/22 138/150/22 139/149/22
f 152/149/19 153/150/19 169/196/19 168/195/19
f 138/146/17 170/191/17 169/192/17 153/171/17
f 171/194/18 139/145/18 152/172/18 168/193/18
v 0.817491 0.191 0.181095
vt 0.300684 0.840833
v 0.809713 0.191 0.173317
vt 0.295823 0.840833
v 0.809713 0.209 0.173317
vt 0.295823 0.825833
v 0.817491 0.209 0.181095
vt 0.300684 0.825833
f 172/197/24 173/198/24 174/199/24 175/200/24
v 0.725567 0.209 0.273019
vt 0.640979 0.825833
v 0.717789 0.209 0.265241
vt 0.636118 0.825833
v 0.717789 0.191 0.265241
vt 0.636118 0.840833
v 0.725567 0.191 0.273019
vt 0.640979 0.840833
f 176/201/25 177/202/25 178/203/25 179/204/25
vt 0.640979 0.358137
vt 0.636118 0.353275
vt 0.69357 0.295823
vt 0.698432 0.300684
f 179/205/22 178/206/22 173/207/22 172/208/22
f 175/208/19 174/207/19 177/206/19 176/205/19
vt 0.69357 0.840833
vt 0.69357 0.825833
f 173/209/17 178/203/17 177/202/17 174/210/17
vt 0.358137 0.840833
vt 0.358137 0.825833
f 179/211/18 172/197/18 175/200/18 176/212/18
v 0.817491 0.2 0.181095
vt 0.300684 0.833333
v 0.809713 0.2 0.173317
vt 0.295823 0.833333
v 0.809713 0.33 0.173317
vt 0.295823 0.725
v 0.817491 0.33 0.181095
vt 0.300684 0.725
f 180/213/24 181/214/24 182/215/24 183/216/24
v 0.804763 0.33 0.193823
vt 0.308639 0.725
v 0.796985 0.33 0.186045
vt 0.303778 0.725
v 0.796985 0.2 0.186045
vt 0.303778 0.833333
v 0.804763 0.2 0.193823
vt 0.308639 0.833333
f 184/217/25 185/218/25 186/219/25 187/220/25
vt 0.690477 0.308639
vt 0.685616 0.303778
f 187/221/22 186/222/22 181/207/22 180/208/22
f 183/208/19 182/207/19 185/222/19 184/221/19
f 181/214/17 186/219/17 185/218/17 182/215/17
f 187/220/18 180/213/18 183/216/18 184/217/18
v 0.273019 0.191 0.725567
v 0.265241 0.191 0.717789
v 0.265241 0.209 0.717789
v 0.273019 0.209 0.725567
f 188/204/24 189/203/24 190/202/24 191/201/24
v 0.181095 0.209 0.817491
vt 0.698432 0.825833
v 0.173317 0.209 0.809713
v 0.173317 0.191 0.809713
v 0.181095 0.191 0.817491
vt 0.698432 0.840833
f 192/223/25 193/210/25 194/209/25 195/224/25
vt 0.300684 0.698432
vt 0.295823 0.69357
vt 0.353275 0.636118
vt 0.358137 0.640979
f 195/225/22 194/226/22 189/227/22 188/228/22
f 191/228/19 190/227/19 193/226/19 192/225/19
vt 0.353275 0.840833
vt 0.353275 0.825833
f 189/229/17 194/198/17 193/199/17 190/230/17
f 195/224/18 188/204/18 191/201/18 192/223/18
v 0.273019 0.2 0.725567
vt 0.640979 0.833333
v 0.265241 0.2 0.717789
vt 0.636118 0.833333
v 0.265241 0.33 0.717789
vt 0.636118 0.725
v 0.273019 0.33 0.725567
vt 0.640979 0.725
f 196/231/24 197/232/24 198/233/24 199/234/24
v 0.260291 0.33 0.738295
vt 0.648934 0.725
v 0.252513 0.33 0.730517
vt 0.644073 0.725
v 0.252513 0.2 0.730517
vt 0.644073 0.833333
v 0.260291 0.2 0.738295
vt 0.648934 0.833333
f 200/235/25 201/236/25 202/237/25 203/238/25
vt 0.350182 0.648934
vt 0.34532 0.644073
f 203/239/22 202/240/22 197/227/22 196/228/22
f 199/228/19 198/227/19 201/240/19 200/239/19
f 197/232/17 202/237/17 201/236/17 198/233/17
f 203/238/18 196/231/18 199/234/18 200/235/18
v 0.817491 0.791 0.181095
vt 0.300684 0.340833
v 0.809713 0.791 0.173317
vt 0.295823 0.340833
v 0.809713 0.809 0.173317
vt 0.295823 0.325833
v 0.817491 0.809 0.181095
vt 0.300684 0.325833
f 204/241/24 205/242/24 206/243/24 207/244/24
v 0.725567 0.809 0.273019
vt 0.640979 0.325833
v 0.717789 0.809 0.265241
vt 0.636118 0.325833
v 0.717789 0.791 0.265241
vt 0.636118 0.340833
v 0.725567 0.791 0.273019
vt 0.640979 0.340833
f 208/245/25 209/246/25 210/247/25 211/248/25
f 211/205/22 210/206/22 205/207/22 204/208/22
f 207/208/19 206/207/19 209/206/19 208/205/19
vt 0.69357 0.340833
vt 0.69357 0.325833
f 205/249/17 210/247/17 209/246/17 206/250/17
vt 0.358137 0.340833
vt 0.358137 0.325833
f 211/251/18 204/241/18 207/244/18 208/252/18
v 0.817491 0.67 0.181095
vt 0.300684 0.441667
v 0.809713 0.67 0.173317
vt 0.295823 0.441667
v 0.809713 0.8 0.173317
vt 0.295823 0.333333
v 0.817491 0.8 0.181095
vt 0.300684 0.333333
f 212/253/24 213/254/24 214/255/24 215/256/24
v 0.804763 0.8 0.193823
vt 0.308639 0.333333
v 0.796985 0.8 0.186045
vt 0.303778 0.333333
v 0.796985 0.67 0.186045
vt 0.303778 0.441667
v 0.804763 0.67 0.193823
vt 0.308639 0.441667
f 216/257/25 217/258/25 218/259/25 219/260/25
f 219/221/22 218/222/22 213/207/22 212/208/22
f 215/208/19 214/207/19 217/222/19 216/221/19
f 213/254/17 218/259/17 217/258/17 214/255/17
f 219/260/18 212/253/18 215/256/18 216/257/18
v 0.273019 0.791 0.725567
v 0.265241 0.791 0.717789
v 0.265241 0.809 0.717789
v 0.273019 0.809 0.725567
f 220/248/24 221/247/24 222/246/24 223/245/24
v 0.181095 0.809 0.817491
vt 0.698432 0.325833
v 0.173317 0.809 0.809713
v 0.173317 0.791 0.809713
v 0.181095 0.791 0.817491
vt 0.698432 0.340833
f 224/261/25 225/250/25 226/249/25 227/262/25
f 227/225/22 226/226/22 221/227/22 220/228/22
f 223/228/19 222/227/19 225/226/19 224/225/19
vt 0.353275 0.340833
vt 0.353275 0.325833
f 221/263/17 226/242/17 225/243/17 222/264/17
f 227/262/18 220/248/18 223/245/18 224/261/18
v 0.273019 0.67 0.725567
vt 0.640979 0.441667
v 0.265241 0.67 0.717789
vt 0.636118 0.441667
v 0.265241 0.8 0.717789
vt 0.636118 0.333333
v 0.273019 0.8 0.725567
vt 0.640979 0.333333
f 228/265/24 229/266/24 230/267/24 231/268/24
v 0.260291 0.8 0.738295
vt 0.648934 0.333333
v 0.252513 0.8 0.730517
vt 0.644073 0.333333
v 0.252513 0.67 0.730517
vt 0.644073 0.441667
v 0.260291 0.67 0.738295
vt 0.648934 0.441667
f 232/269/25 233/270/25 234/271/25 235/272/25
f 235/239/22 234/240/22 229/227/22 228/228/22
f 231/228/19 230/227/19 233/240/19 232/239/19
f 229/266/17 234/271/17 233/270/17 230/267/17
f 235/272/18 228/265/18 231/268/18 232/269/18
v 0.537477 0.675 0.512021
vt 0.507513 0.4375
v 0.498586 0.675 0.47313
vt 0.483206 0.4375
v 0.498586 0.711 0.47313
vt 0.483206 0.4075
v 0.537477 0.711 0.512021
vt 0.507513 0.4075
f 236/273/24 237/274/24 238/275/24 239/276/24
v 0.512021 0.711 0.537477
vt 0.523423 0.4075
v 0.47313 0.711 0.498586
vt 0.499116 0.4075
v 0.47313 0.675 0.498586
vt 0.499116 0.4375
v 0.512021 0.675 0.537477
vt 0.523423 0.4375
f 240/277/25 241/278/25 242/279/25 243/280/25
vt 0.507513 0.523423
vt 0.483206 0.499116
vt 0.499116 0.483206
vt 0.523423 0.507513
f 243/281/22 242/282/22 237/283/22 236/284/22
f 239/284/19 238/283/19 241/282/19 240/281/19
f 237/274/17 242/279/17 241/278/17 238/275/17
f 243/280/18 236/273/18 239/276/18 240/277/18
v 0.401005 0.482 0.648492
vt 0.592808 0.598333
v 0.362114 0.482 0.609602
vt 0.568501 0.598333
v 0.362114 0.518 0.609602
vt 0.568501 0.568333
v 0.401005 0.518 0.648492
vt 0.592808 0.568333
f 244/285/24 245/286/24 246/287/24 247/288/24
v 0.375549 0.518 0.673948
vt 0.608718 0.568333
v 0.336658 0.518 0.635057
vt 0.584411 0.568333
v 0.336658 0.482 0.635057
vt 0.584411 0.598333
v 0.375549 0.482 0.673948
vt 0.608718 0.598333
f 248/289/25 249/290/25 250/291/25 251/292/25
vt 0.422218 0.608718
vt 0.397911 0.584411
vt 0.413821 0.568501
vt 0.438128 0.592808
f 251/293/22 250/294/22 245/295/22 244/296/22
f 247/296/19 246/295/19 249/294/19 248/293/19
vt 0.413821 0.598333
vt 0.397911 0.598333
vt 0.397911 0.568333
vt 0.413821 0.568333
f 245/297/17 250/298/17 249/299/17 246/300/17
f 251/292/18 244/285/18 247/288/18 248/289/18
v 0.537477 0.289 0.512021
vt 0.507513 0.759167
v 0.498586 0.289 0.47313
vt 0.483206 0.759167
v 0.498586 0.325 0.47313
vt 0.483206 0.729167
v 0.537477 0.325 0.512021
vt 0.507513 0.729167
f 252/301/24 253/302/24 254/303/24 255/304/24
v 0.512021 0.325 0.537477
vt 0.523423 0.729167
v 0.47313 0.325 0.498586
vt 0.499116 0.729167
v 0.47313 0.289 0.498586
vt 0.499116 0.759167
v 0.512021 0.289 0.537477
vt 0.523423 0.759167
f 256/305/25 257/306/25 258/307/25 259/308/25
f 259/281/22 258/282/22 253/283/22 252/284/22
f 255/284/19 254/283/19 257/282/19 256/281/19
f 253/307/17 258/302/17 257/303/17 254/306/17
f 259/308/18 252/301/18 255/304/18 256/305/18
v 0.673948 0.482 0.375549
vt 0.422218 0.598333
v 0.635057 0.482 0.336658
v 0.635057 0.518 0.336658
v 0.673948 0.518 0.375549
vt 0.422218 0.568333
f 260/309/24 261/298/24 262/299/24 263/310/24
v 0.648492 0.518 0.401005
vt 0.438128 0.568333
v 0.609602 0.518 0.362114
v 0.609602 0.482 0.362114
v 0.648492 0.482 0.401005
vt 0.438128 0.598333
f 264/311/25 265/300/25 266/297/25 267/312/25
vt 0.592808 0.438128
vt 0.568501 0.413821
vt 0.584411 0.397911
vt 0.608718 0.422218
f 267/313/22 266/314/22 261/315/22 260/316/22
f 263/316/19 262/315/19 265/314/19 264/313/19
f 261/298/17 266/297/17 265/300/17 262/299/17
f 267/285/18 260/292/18 263/289/18 264/288/18
